<?xml version="1.0" standalone="no"?>
<!DOCTYPE svg PUBLIC "-//W3C//DTD SVG 20010904//EN"
 "http://www.w3.org/TR/2001/REC-SVG-20010904/DTD/svg10.dtd">
<svg version="1.0" xmlns="http://www.w3.org/2000/svg"
 width="3840.000000pt" height="2160.000000pt" viewBox="0 0 3840.000000 2160.000000"
 preserveAspectRatio="xMidYMid meet">

<g transform="translate(0.000000,2160.000000) scale(0.100000,-0.100000)"
fill="#000000" stroke="none">
<path d="M3203 17128 c-17 -29 -38 -69 -46 -90 -8 -20 -25 -46 -36 -57 -11
-11 -36 -51 -54 -88 -48 -97 -71 -137 -82 -145 -7 -5 -7 -8 0 -8 6 0 3 -6 -6
-13 -9 -7 -40 -57 -69 -112 -29 -55 -65 -118 -80 -140 -15 -22 -41 -70 -58
-106 -16 -37 -39 -76 -49 -86 -11 -11 -27 -33 -35 -49 -72 -140 -91 -176 -103
-187 -11 -11 -79 -134 -119 -214 -6 -13 -15 -23 -19 -23 -5 0 -5 -4 -2 -10 3
-5 2 -10 -4 -10 -5 0 -22 -26 -37 -57 -16 -32 -55 -103 -89 -158 -33 -55 -75
-130 -93 -167 -18 -38 -37 -68 -41 -68 -5 0 -32 -48 -61 -106 -29 -58 -58
-108 -66 -111 -8 -3 -11 -9 -8 -14 3 -5 1 -9 -4 -9 -5 0 -19 -21 -30 -47 -28
-62 -90 -176 -101 -183 -5 -3 -25 -38 -46 -79 -20 -41 -58 -108 -84 -150 -26
-42 -64 -110 -85 -151 -20 -41 -43 -80 -50 -85 -8 -6 -39 -61 -70 -122 -31
-62 -63 -116 -70 -120 -8 -4 -26 -34 -39 -65 -14 -32 -40 -78 -57 -103 -17
-25 -27 -45 -23 -45 4 0 3 -4 -3 -8 -6 -4 -30 -43 -54 -87 -24 -44 -70 -124
-103 -178 -57 -95 -59 -100 -54 -149 7 -52 65 -239 78 -248 4 -3 15 -32 24
-65 9 -33 34 -115 56 -182 21 -67 39 -129 39 -138 0 -8 4 -15 10 -15 5 0 9 -3
8 -7 0 -5 2 -15 5 -23 17 -41 41 -117 73 -230 20 -69 40 -126 44 -128 5 -2 6
-10 3 -18 -3 -8 -1 -14 5 -14 11 0 23 -30 47 -120 30 -112 77 -255 85 -260 4
-3 22 -54 40 -115 46 -164 83 -269 94 -277 6 -4 7 -8 2 -8 -5 0 -4 -6 2 -12 6
-7 18 -41 27 -76 9 -35 34 -117 55 -183 22 -66 40 -126 40 -134 0 -7 3 -15 8
-17 9 -4 59 -154 97 -290 15 -54 31 -98 35 -98 8 0 54 -132 65 -190 14 -68 57
-190 68 -190 6 0 7 -3 4 -7 -4 -3 -3 -11 2 -17 5 -6 21 -56 36 -111 15 -55 38
-129 51 -165 13 -36 26 -77 30 -92 3 -16 10 -28 15 -28 5 0 9 -6 9 -14 0 -8
16 -65 36 -128 20 -62 45 -144 56 -183 10 -38 23 -72 27 -75 7 -5 37 -94 93
-282 17 -58 29 -80 46 -87 16 -8 1034 -11 3325 -11 l3303 0 27 -57 c14 -32 50
-129 78 -215 28 -87 55 -158 61 -158 5 0 6 -5 2 -11 -3 -6 -3 -14 2 -18 5 -3
36 -87 68 -186 33 -99 63 -182 67 -185 9 -6 109 -306 109 -326 0 -7 6 -19 13
-26 6 -8 18 -24 24 -35 11 -19 10 -24 -6 -35 -10 -7 -35 -44 -56 -83 -20 -38
-46 -82 -56 -97 -11 -14 -19 -30 -19 -35 0 -4 -11 -18 -24 -31 -13 -12 -32
-39 -43 -60 -10 -20 -32 -57 -48 -81 -52 -77 -125 -195 -141 -228 -9 -18 -20
-33 -25 -33 -5 0 -9 -6 -9 -14 0 -8 -6 -16 -13 -19 -8 -3 -25 -29 -39 -59 -14
-29 -42 -74 -61 -100 -20 -26 -55 -80 -77 -120 -23 -40 -48 -79 -57 -86 -9 -6
-13 -12 -7 -12 5 0 2 -6 -8 -13 -9 -7 -26 -32 -38 -55 l-22 -42 -3318 0 -3317
0 -27 -40 c-14 -22 -26 -43 -26 -48 0 -4 -18 -28 -41 -52 -22 -25 -59 -73 -81
-108 -22 -34 -48 -68 -58 -75 -10 -7 -28 -30 -40 -52 -12 -22 -50 -76 -85
-120 -34 -44 -81 -110 -104 -147 -24 -38 -47 -68 -51 -68 -5 0 -23 -24 -40
-52 -18 -29 -54 -80 -79 -113 -26 -33 -62 -82 -81 -109 -18 -27 -41 -57 -51
-67 -9 -9 -38 -49 -63 -87 -25 -39 -62 -88 -81 -109 -19 -21 -35 -42 -35 -47
0 -5 -39 -61 -86 -123 -47 -63 -93 -128 -101 -144 -8 -16 -22 -34 -31 -41 -18
-14 -72 -83 -72 -92 0 -11 -72 -106 -80 -106 -5 0 -21 -22 -37 -49 -15 -27
-61 -92 -101 -145 -39 -53 -72 -99 -72 -103 0 -5 -16 -26 -36 -48 -19 -22 -60
-77 -90 -122 -31 -46 -59 -83 -64 -83 -13 0 -52 -72 -46 -86 5 -12 810 -14
5023 -14 l5018 1 33 53 c17 30 32 58 32 63 0 5 9 19 20 31 12 12 18 22 15 22
-3 0 -1 6 5 13 11 11 61 98 166 287 26 47 65 114 87 149 22 36 49 85 61 110
27 60 66 123 82 137 7 5 24 35 38 65 31 64 72 140 85 155 5 7 7 15 4 18 -4 3
-2 6 4 6 5 0 27 33 48 73 21 39 52 95 70 122 18 28 55 93 83 145 27 52 63 115
80 140 16 25 42 70 57 101 14 31 35 66 45 77 10 11 16 23 13 26 -4 3 -2 6 4 6
6 0 16 15 24 33 7 17 27 55 44 82 17 28 37 65 44 83 7 17 16 32 20 32 4 0 20
26 36 58 16 31 58 107 94 169 118 201 155 266 204 358 26 49 54 95 61 100 7 6
29 42 48 80 20 39 46 90 59 115 13 25 28 48 33 52 7 5 7 8 1 8 -5 0 -3 6 6 13
10 7 38 53 65 102 26 50 59 108 74 130 15 22 44 74 64 115 21 41 43 80 49 85
7 6 20 26 29 45 10 19 31 59 48 89 36 65 37 89 7 178 -13 37 -34 102 -47 143
-12 41 -30 93 -40 115 -10 22 -30 83 -45 135 -27 93 -55 174 -81 235 -7 17
-20 57 -29 90 -18 65 -91 287 -105 320 -5 11 -16 45 -25 75 -9 30 -25 78 -35
105 -10 28 -31 93 -46 145 -15 52 -31 100 -34 105 -11 17 -36 92 -80 235 -22
74 -47 146 -54 160 -7 14 -28 72 -45 130 -42 142 -73 233 -82 245 -4 6 -15 37
-24 70 -21 76 -104 334 -116 360 -16 37 -60 169 -85 260 -14 50 -34 108 -44
130 -18 42 -63 176 -100 304 -12 41 -28 83 -35 95 -7 12 -19 41 -25 66 -24 87
-103 335 -110 345 -4 6 -24 63 -43 127 -20 65 -41 126 -47 138 l-11 20 -3321
2 -3322 3 -19 65 c-11 36 -24 68 -31 72 -6 4 -6 8 -1 8 6 0 6 3 -1 8 -6 4 -32
70 -59 147 -27 77 -61 167 -75 200 -15 33 -44 113 -65 178 -20 65 -43 124 -51
131 -7 8 -10 17 -6 20 3 4 2 10 -4 14 -5 4 -27 57 -48 117 -21 61 -48 137 -59
170 -12 33 -25 62 -29 63 -4 2 -5 8 -2 14 4 6 1 14 -5 18 -10 5 -9 11 2 22 8
7 22 28 30 45 9 16 34 58 57 91 22 34 40 65 40 69 0 4 11 18 23 30 13 12 38
49 56 82 18 34 45 76 62 93 16 18 29 38 29 44 0 6 13 29 29 51 16 22 39 59 50
82 12 22 25 41 29 41 4 0 19 21 32 46 14 26 58 97 99 158 40 61 85 131 99 156
14 25 35 55 47 67 12 12 32 43 45 68 l23 45 15346 0 c14427 0 15348 1 15371
17 14 9 31 26 39 37 8 12 48 56 90 98 42 43 130 135 196 205 66 70 149 157
185 193 36 36 89 93 119 127 29 34 62 65 72 68 11 4 19 12 19 19 0 7 26 37 57
67 32 30 87 88 124 129 36 41 104 114 150 161 194 198 406 425 412 442 4 9 17
21 31 27 13 5 29 17 34 26 10 18 120 136 260 279 45 46 82 89 82 94 0 6 5 11
10 11 6 0 25 17 42 38 33 38 97 106 228 240 99 102 140 151 140 168 0 12
-2460 14 -17323 14 l-17322 0 -32 -52z"/>
<path d="M15133 13603 c-21 -19 -37 -74 -53 -183 -9 -66 -34 -202 -65 -365
-10 -49 -21 -92 -25 -95 -7 -5 -46 -221 -56 -305 -3 -27 -9 -59 -14 -70 -5
-11 -11 -36 -13 -55 -9 -72 -38 -206 -48 -223 -5 -10 -7 -22 -4 -27 4 -6 2
-10 -3 -10 -5 0 -12 -30 -16 -67 -4 -38 -12 -86 -18 -108 -5 -22 -14 -62 -18
-90 -5 -27 -16 -86 -25 -130 -8 -44 -23 -123 -31 -175 -8 -52 -19 -99 -23
-105 -5 -5 -17 -53 -26 -105 -10 -52 -23 -126 -30 -165 -7 -38 -18 -96 -24
-127 -28 -159 -43 -235 -51 -253 -15 -39 -43 -183 -75 -385 -21 -134 -46 -244
-57 -257 -6 -7 -8 -19 -5 -28 4 -8 2 -17 -2 -19 -4 -3 -16 -54 -26 -113 -27
-167 -30 -187 -65 -358 -18 -88 -36 -162 -40 -165 -4 -3 -13 -51 -20 -108 -7
-57 -17 -105 -22 -108 -4 -3 -8 -18 -8 -33 0 -16 -7 -62 -15 -102 -36 -172
-45 -217 -51 -269 -3 -30 -11 -61 -16 -67 -6 -7 -16 -48 -24 -90 -8 -43 -21
-114 -29 -158 -9 -44 -22 -116 -30 -160 -28 -166 -37 -210 -43 -225 -3 -8 -6
-19 -7 -25 0 -5 -3 -14 -7 -20 -3 -5 -11 -44 -17 -85 -7 -41 -16 -91 -21 -110
-5 -19 -14 -73 -20 -120 -6 -46 -15 -91 -19 -100 -5 -8 -11 -40 -15 -70 -8
-70 -26 -150 -37 -173 -12 -23 -35 -144 -44 -232 -4 -38 -10 -74 -14 -80 -3
-5 -11 -39 -17 -75 -22 -125 -48 -235 -56 -238 -4 -2 -8 -16 -8 -30 -1 -15 -7
-63 -16 -107 -8 -44 -21 -116 -29 -160 -8 -44 -21 -109 -29 -145 -7 -36 -19
-101 -26 -145 -7 -44 -16 -85 -21 -91 -5 -7 -9 -16 -8 -20 1 -5 0 -16 -4 -24
-3 -8 -15 -71 -27 -140 -11 -69 -25 -141 -30 -160 -7 -30 -33 -166 -56 -302
-3 -21 -10 -38 -15 -38 -5 0 -9 -9 -9 -19 0 -11 -11 -75 -24 -143 -13 -67 -27
-152 -31 -188 -4 -36 -11 -69 -15 -75 -4 -5 -10 -28 -13 -50 -9 -72 -30 -170
-38 -175 -4 -3 -15 -55 -24 -115 -9 -61 -25 -153 -35 -205 -11 -52 -22 -123
-26 -157 l-7 -63 517 0 516 0 128 61 c70 34 129 65 132 70 6 8 202 102 238
113 12 4 22 11 22 16 0 7 222 120 236 120 2 0 23 13 46 30 22 16 45 30 50 30
9 0 61 26 313 156 77 40 199 102 270 138 72 37 150 78 174 92 24 13 67 34 95
46 28 12 74 35 101 52 28 17 66 38 85 47 210 98 210 99 227 201 32 199 70 389
82 413 6 11 17 63 25 115 19 119 39 228 65 350 12 52 24 123 27 158 4 34 11
62 16 62 5 0 6 4 3 10 -3 6 -2 10 3 10 4 0 14 37 21 83 7 45 21 123 32 172 10
50 26 137 35 195 9 58 23 120 31 138 8 17 13 43 11 57 -3 14 -2 25 2 25 7 0
15 34 45 200 8 47 20 112 26 145 6 33 16 94 23 135 l12 75 2637 5 2637 5 17
25 c17 25 85 98 201 213 34 35 62 68 62 75 0 7 4 12 9 12 12 0 70 58 64 64 -3
2 4 9 15 15 11 6 43 40 72 76 30 36 58 65 65 65 6 0 19 13 28 30 10 16 45 53
77 82 33 29 60 58 60 64 0 6 30 40 68 76 37 35 105 106 152 158 47 51 131 140
187 197 56 57 103 108 105 112 2 7 587 627 710 755 21 21 38 41 38 44 0 3 27
31 60 62 33 31 60 61 60 65 0 5 30 39 68 75 37 37 119 122 182 190 240 257
267 285 325 346 160 166 172 186 138 219 -9 9 -41 67 -71 128 -30 62 -60 115
-66 119 -6 4 -11 11 -12 15 0 4 -12 31 -26 58 -14 28 -41 80 -60 116 -18 36
-38 72 -45 80 -6 8 -32 57 -59 109 -26 52 -55 106 -64 120 -17 24 -59 104
-207 390 -36 69 -69 130 -74 136 -8 10 -25 41 -66 119 -6 11 -19 37 -29 58
-10 20 -22 37 -27 37 -4 0 -5 5 -2 10 3 6 2 10 -3 10 -6 0 -15 14 -21 31 -6
17 -24 52 -39 78 -16 25 -31 57 -35 71 -3 14 -15 35 -26 47 -21 22 -34 45 -92
168 -19 39 -40 75 -49 82 -8 7 -10 13 -5 13 6 0 5 3 -1 8 -6 4 -35 57 -64 117
-30 61 -57 111 -62 113 -4 2 -34 56 -67 120 -32 64 -77 148 -100 187 -22 38
-41 75 -41 82 0 7 -9 17 -19 23 -14 7 -1334 10 -4189 10 -3957 0 -4171 -1
-4189 -17z m6471 -2365 c16 -33 37 -69 46 -78 9 -9 30 -44 45 -76 16 -32 51
-96 78 -142 l51 -84 -50 -48 c-27 -26 -80 -82 -119 -125 -38 -42 -96 -105
-128 -139 -148 -157 -174 -185 -203 -219 l-31 -37 -1953 0 -1952 0 6 58 c4 31
11 68 16 82 4 14 16 68 25 120 10 52 22 101 27 107 6 7 8 24 6 38 -3 13 -2 26
3 27 4 2 15 50 24 108 9 58 23 132 31 166 8 33 14 74 14 92 0 17 4 33 9 36 4
3 11 27 15 53 3 27 9 65 12 86 l6 37 1997 0 1996 0 29 -62z"/>
<path d="M25871 13606 c-7 -8 -16 -36 -20 -63 -21 -117 -55 -278 -62 -283 -3
-3 -9 -32 -13 -65 -4 -33 -11 -73 -16 -90 -4 -16 -15 -70 -24 -120 -9 -49 -25
-136 -36 -193 -11 -57 -23 -128 -26 -158 -4 -30 -11 -54 -16 -54 -5 0 -6 -4
-3 -10 3 -5 2 -10 -3 -10 -5 0 -13 -34 -17 -75 -4 -41 -11 -77 -16 -81 -5 -3
-9 -17 -9 -31 0 -22 -18 -120 -60 -326 -6 -27 -10 -61 -10 -77 0 -16 -5 -32
-11 -36 -6 -3 -9 -19 -7 -35 3 -20 0 -29 -9 -29 -8 0 -13 -12 -13 -31 0 -27
-15 -110 -50 -284 -14 -71 -42 -233 -48 -277 -2 -21 -8 -38 -12 -38 -4 0 -13
-30 -19 -67 -7 -38 -16 -84 -21 -103 -5 -19 -17 -82 -26 -140 -9 -58 -23 -139
-31 -180 -8 -41 -17 -91 -20 -110 -3 -19 -9 -37 -13 -40 -6 -5 -12 -34 -45
-220 -8 -41 -20 -109 -29 -150 -29 -151 -46 -253 -46 -282 0 -16 -6 -31 -14
-34 -8 -3 -16 -30 -20 -75 -3 -38 -10 -77 -15 -87 -5 -9 -14 -44 -19 -77 -5
-33 -24 -138 -41 -233 -17 -95 -31 -184 -31 -198 0 -15 -6 -24 -15 -24 -11 0
-15 -11 -15 -37 0 -21 -5 -56 -10 -78 -16 -64 -76 -397 -87 -482 -3 -24 -10
-43 -15 -43 -6 0 -8 -6 -5 -14 3 -8 3 -16 -1 -18 -10 -4 -40 -155 -83 -423 -5
-33 -16 -86 -24 -118 -8 -32 -15 -71 -15 -87 0 -16 -4 -30 -10 -32 -5 -1 -16
-48 -25 -103 -9 -55 -20 -113 -25 -130 -5 -16 -14 -59 -19 -95 -6 -36 -17
-103 -26 -150 -9 -47 -19 -102 -22 -122 -3 -21 -9 -38 -14 -38 -4 0 -11 -30
-14 -67 -4 -38 -10 -72 -14 -78 -3 -5 -11 -41 -18 -80 -6 -38 -16 -90 -21
-115 -21 -100 -52 -284 -52 -311 0 -16 -6 -32 -14 -35 -8 -3 -16 -29 -20 -66
-3 -34 -10 -76 -15 -92 -15 -48 -32 -132 -46 -231 -22 -150 -49 -290 -57 -296
-8 -5 -21 -60 -38 -164 -14 -80 -47 -263 -65 -353 -8 -40 -15 -84 -15 -97 0
-14 -4 -25 -9 -25 -11 0 -16 -20 -36 -145 -31 -199 -88 -480 -97 -486 -6 -4
-9 -21 -6 -38 2 -17 1 -32 -2 -33 -4 -2 -10 -29 -14 -61 l-6 -57 525 0 525 0
72 34 c40 19 80 37 88 40 8 3 38 19 65 36 28 16 104 56 170 89 66 33 149 76
185 95 36 19 93 47 128 62 34 15 62 31 62 37 0 6 3 7 6 4 4 -4 19 2 33 12 14
10 49 28 76 41 90 41 130 63 138 77 4 7 14 13 21 13 14 0 248 108 256 119 8
10 194 102 206 101 5 0 20 9 32 20 12 12 22 17 22 13 0 -4 4 -3 8 3 7 10 85
49 190 94 28 12 52 27 52 32 0 5 5 6 10 3 6 -3 10 -2 10 2 0 5 33 24 73 42
179 84 182 86 192 184 4 37 13 73 19 80 7 7 18 44 25 82 7 39 19 104 26 145 8
41 17 91 20 110 34 186 59 306 65 310 4 3 14 50 23 105 9 55 23 136 32 180 24
119 44 231 57 315 7 41 16 78 21 81 6 4 7 16 4 27 -2 12 -2 22 2 24 10 4 102
477 118 606 3 23 9 42 14 42 5 0 9 8 9 19 0 10 9 54 20 97 10 43 27 135 36
204 9 69 20 134 24 145 5 11 13 51 19 89 5 38 14 72 19 75 5 3 12 27 16 54 l7
47 1961 0 c1567 0 1958 -3 1950 -12 -5 -7 -15 -49 -22 -93 -6 -44 -15 -96 -20
-115 -15 -58 -69 -341 -76 -400 -4 -30 -11 -61 -17 -67 -5 -7 -7 -23 -5 -36 2
-13 -1 -28 -8 -34 -6 -6 -15 -38 -18 -70 -4 -32 -11 -71 -16 -88 -9 -29 -14
-58 -60 -320 -12 -66 -26 -130 -32 -142 -6 -12 -8 -31 -5 -42 3 -11 1 -21 -4
-23 -5 -2 -14 -26 -18 -53 -5 -28 -19 -102 -31 -165 -11 -63 -27 -151 -35
-195 -7 -44 -17 -98 -21 -120 -4 -22 -10 -45 -15 -50 -7 -10 -19 -68 -53 -255
-45 -250 -68 -367 -76 -385 -5 -11 -16 -60 -25 -110 -8 -49 -20 -118 -26 -152
-7 -34 -9 -69 -6 -77 6 -15 151 -16 1459 -14 l1453 3 3 30 c1 17 7 39 12 50 5
11 11 34 14 50 3 17 9 50 15 75 33 162 60 303 66 350 7 60 20 113 37 147 6 12
8 35 6 52 -3 17 -1 31 3 31 7 0 16 39 33 135 3 17 14 82 26 145 11 63 27 151
34 196 8 45 19 90 24 100 11 20 28 103 62 294 40 226 73 385 80 395 4 6 10 33
14 60 7 51 21 124 57 300 11 55 27 145 35 200 8 55 20 110 26 122 6 11 8 27 6
34 -3 8 1 20 9 27 7 7 13 26 13 41 0 15 9 72 21 127 18 85 49 257 66 359 2 17
9 40 15 52 6 12 8 31 5 42 -3 11 -1 21 3 23 11 4 57 230 66 321 4 37 11 70 15
73 5 3 9 19 9 35 0 36 29 180 39 194 9 13 28 97 36 160 3 28 10 70 15 95 6 25
24 117 40 205 17 88 36 170 42 182 6 12 8 33 6 47 -3 14 -2 26 1 26 7 0 25 83
56 260 8 47 20 105 25 130 5 25 15 79 21 120 5 41 16 89 24 105 7 17 16 50 20
75 3 25 19 110 35 190 16 80 32 172 36 205 3 33 10 65 14 70 4 6 10 38 14 72
4 34 13 74 20 90 8 15 23 84 35 153 12 69 31 170 41 225 11 55 20 114 20 132
0 17 5 35 10 38 6 3 10 21 10 39 0 17 5 37 11 43 10 10 26 89 63 318 20 121
54 282 66 310 5 11 13 47 19 80 5 33 21 123 35 200 23 122 26 168 26 355 0
155 -3 219 -12 228 -18 18 -2786 17 -2810 -2 -10 -7 -20 -33 -23 -57 -4 -24
-10 -53 -15 -64 -5 -11 -11 -36 -14 -55 -15 -104 -69 -387 -77 -402 -5 -10 -9
-25 -9 -35 0 -9 -4 -30 -9 -47 -6 -17 -17 -69 -26 -116 -9 -47 -20 -105 -25
-130 -5 -25 -17 -92 -25 -150 -8 -58 -23 -119 -31 -137 -9 -18 -14 -43 -12
-57 3 -14 1 -27 -4 -28 -5 -2 -16 -42 -23 -88 -8 -47 -23 -134 -35 -195 -12
-60 -27 -149 -35 -197 -8 -47 -18 -94 -24 -105 -9 -16 -40 -171 -56 -283 -3
-25 -10 -58 -15 -75 -5 -16 -21 -100 -35 -185 -14 -85 -30 -163 -36 -173 -5
-10 -7 -22 -4 -27 4 -6 1 -10 -4 -10 -6 0 -11 -14 -11 -31 0 -17 -9 -72 -20
-122 -25 -110 -37 -169 -45 -219 l-6 -38 -1956 0 -1956 0 6 38 c3 20 9 62 13
92 4 30 10 60 14 65 4 6 11 47 15 93 5 58 12 85 22 91 11 6 14 18 11 39 -2 18
0 33 5 35 9 3 19 51 66 342 11 66 27 146 35 178 9 32 16 67 16 77 0 11 4 20 8
20 5 0 14 35 20 78 6 42 16 100 21 127 30 151 52 272 67 365 9 58 20 107 24
110 9 5 16 40 55 250 34 181 55 306 62 358 3 23 9 42 14 42 5 0 9 10 9 22 0
12 4 35 9 52 16 54 31 127 52 261 37 237 41 274 35 290 -5 13 -166 15 -1444
15 -1225 0 -1441 -2 -1451 -14z"/>
</g>
</svg>
